<?xml version="1.0" encoding="UTF-8"?>
<!-- Generator: visioncortex VTracer 0.6.4 -->
<svg version="1.1" xmlns="http://www.w3.org/2000/svg" width="2400" height="840">
<path d="M0 0 C1.2118119 -0.00284752 1.2118119 -0.00284752 2.44810486 -0.00575256 C5.1314354 -0.00946526 7.81449589 0.00128644 10.49780273 0.01245117 C12.40307077 0.01364728 14.3083394 0.01409523 16.21360779 0.01383972 C20.23619217 0.01540763 24.25868798 0.02369423 28.28125 0.03710938 C33.29263617 0.05365711 38.30392238 0.05781956 43.31533241 0.05732918 C56.16708858 0.05752105 69.01771725 0.12162521 81.86889648 0.24291992 C82.89288292 0.25242424 83.91686935 0.26192856 84.97188568 0.27172089 C91.10546844 0.33189524 97.23830476 0.41258064 103.37125969 0.51920128 C105.28102456 0.55077016 107.19087196 0.57773482 109.10077095 0.59974098 C111.74520857 0.63179122 114.38867733 0.68235356 117.03271484 0.73779297 C117.79799185 0.74359312 118.56326885 0.74939327 119.35173607 0.75536919 C124.80947788 0.89903675 129.9181391 1.85048171 134.86889648 4.24291992 C139.20476265 9.22916601 140.01311174 13.9308103 139.99389648 20.36791992 C139.99647461 21.21612305 139.99905273 22.06432617 140.00170898 22.93823242 C139.89468266 25.60129926 139.65628225 28.15750729 139.36108398 30.80151367 C138.41144641 40.8226446 138.81621451 50.94354787 138.8894043 60.99755859 C139.02397999 81.2919271 139.02397999 81.2919271 137.86889648 91.24291992 C138.95041992 91.2919043 140.03194336 91.34088867 141.14624023 91.39135742 C150.83764599 91.8538215 160.50901026 92.47798467 170.18139648 93.24291992 C171.24801514 93.32590332 172.31463379 93.40888672 173.41357422 93.49438477 C178.27732805 93.88831439 183.07056273 94.31793992 187.86889648 95.24291992 C187.86365967 94.65430176 187.85842285 94.06568359 187.85302734 93.45922852 C187.71359475 74.89527831 188.08696232 56.36052975 188.66934204 37.80712891 C188.80985184 33.32374687 188.92397375 28.84087482 189.01733398 24.35620117 C189.07083023 22.48507298 189.12539329 20.61397475 189.18139648 18.74291992 C189.19162842 17.93814209 189.20186035 17.13336426 189.21240234 16.30419922 C189.40195293 11.19533275 190.38098139 8.02102045 193.86889648 4.24291992 C198.82572828 2.4593542 203.50597872 1.91848675 208.72949219 1.83227539 C209.48699485 1.81249036 210.24449751 1.79270533 211.0249548 1.77232075 C213.53140484 1.70928966 216.03792499 1.6595162 218.54467773 1.61010742 C220.32877112 1.56855355 222.11284897 1.52632785 223.89691162 1.48347473 C228.67152049 1.37173874 233.44630719 1.27265894 238.22127151 1.1774559 C241.17864034 1.11797536 244.13593761 1.05568731 247.0932312 0.99258423 C270.80360135 0.48932107 294.51721443 0.03767377 318.23324585 -0.05462646 C320.68625139 -0.06454529 323.139243 -0.0790248 325.5921936 -0.09820557 C328.946348 -0.12152664 332.29983461 -0.12458656 335.65405273 -0.12036133 C336.61559265 -0.12948044 337.57713257 -0.13859955 338.56781006 -0.147995 C343.69155788 -0.11238501 347.57823218 0.12508925 351.86889648 3.24291992 C355.21156697 8.0161494 355.29640023 12.31577816 355.23217773 17.92260742 C355.23335602 18.78337891 355.2345343 19.64415039 355.23574829 20.53100586 C355.23381358 23.39361141 355.20828178 26.25544755 355.18139648 29.11791992 C355.17335168 31.13891479 355.16562749 33.15991096 355.15820312 35.1809082 C355.04277915 54.21728318 354.33444911 73.23752411 353.49316406 92.25415039 C353.44533783 93.39916016 353.3975116 94.54416992 353.34823608 95.72387695 C353.25948142 97.83861073 353.16427322 99.95309085 353.06045532 102.06713867 C352.83217382 107.60782502 352.96972218 112.98581779 353.41656494 118.51477051 C354.04062278 127.44163142 353.60312945 136.20212567 353.03613281 145.12036133 C352.93360982 146.84690776 352.83189871 148.57350256 352.73092651 150.30014038 C352.45705181 154.93642295 352.17065629 159.57184615 351.88079667 164.2071538 C351.63895763 168.08925149 351.4027544 171.97168495 351.16630381 175.85411394 C350.6084197 185.00856698 350.03961183 194.16229743 349.46435547 203.31567383 C348.87189664 212.74658711 348.30030154 222.17860949 347.7383917 231.61138785 C347.25361843 239.73484855 346.75492528 247.85737592 346.24528331 255.97931421 C345.94173533 260.82012261 345.64369897 265.66111287 345.35953712 270.50310135 C345.09237641 275.04661374 344.80788233 279.58871301 344.51003647 284.13031387 C344.40381166 285.79480048 344.30373422 287.45969269 344.21030617 289.12494659 C344.08166239 291.40053411 343.93074676 293.67360091 343.77424622 295.94741821 C343.69551679 297.21899088 343.61678736 298.49056355 343.53567219 299.80066872 C342.59681911 304.64752822 340.47111426 307.68243141 336.9669075 311.0953722 C334.26413546 312.57370567 332.37676222 312.61232404 329.30072021 312.60368347 C328.16772491 312.60780746 327.03472961 312.61193146 325.86740112 312.61618042 C324.62878326 312.60539459 323.39016541 312.59460876 322.11401367 312.58349609 C320.15266983 312.58415321 320.15266983 312.58415321 318.15170288 312.58482361 C314.56928557 312.58568431 310.98716963 312.5680467 307.40482235 312.54710174 C303.65989141 312.52834729 299.91495356 312.52658547 296.16998291 312.52302551 C289.07977284 312.51370141 281.98970155 312.48908274 274.89955258 312.45897704 C266.82708162 312.42544437 258.75460402 312.40894988 250.68208075 312.39389074 C234.07760475 312.36253345 217.47326833 312.30976592 200.86889648 312.24291992 C195.37171193 301.61202042 195.25773893 290.59347578 194.57983398 278.88354492 C194.47111034 277.08905946 194.36185822 275.29460594 194.25210571 273.50018311 C194.02416422 269.74834122 193.80108868 265.9962531 193.58178711 262.24389648 C193.30251423 257.46836068 193.01347737 252.69348064 192.72102928 247.9187355 C192.49483981 244.21427783 192.27273698 240.50958398 192.05192947 236.80480194 C191.94684539 235.04593896 191.84080878 233.28713259 191.73374557 231.52838898 C191.14193444 221.75105196 190.70713502 212.04217974 190.86889648 202.24291992 C189.94592773 202.25452148 189.02295898 202.26612305 188.07202148 202.27807617 C179.44288616 202.33776387 170.88463979 202.08332962 162.26928711 201.60083008 C154.79415768 201.19861352 147.35367447 201.14085477 139.86889648 201.24291992 C138.67668857 205.00597839 138.72369219 208.61201017 138.6953125 212.53979492 C138.68528198 213.63365005 138.68528198 213.63365005 138.67504883 214.74960327 C138.66101476 216.33299096 138.64911549 217.91639868 138.63910103 219.49981689 C138.622586 222.02607244 138.59933298 224.55218544 138.57420349 227.07836914 C138.50379925 234.26172631 138.44404248 241.44514852 138.39208984 248.62866211 C138.13137472 283.64365089 138.13137472 283.64365089 137.08374023 295.24291992 C136.9943795 296.34337646 136.9943795 296.34337646 136.9032135 297.46606445 C136.3386881 302.529677 134.93612591 307.14681459 131.86889648 311.24291992 C125.58042385 314.47495389 117.77563764 314.00714978 110.80639648 314.36791992 C110.03400635 314.4092807 109.26161621 314.45064148 108.46582031 314.49325562 C92.93763584 315.29426634 77.39789998 315.48655122 61.85134888 315.54046631 C59.24087357 315.55026832 56.63041052 315.56463092 54.01998901 315.58404541 C40.03972861 315.67491784 26.22322681 315.31908324 12.30639648 313.91088867 C11.1480127 313.79441483 9.98962891 313.67794098 8.79614258 313.55793762 C3.0601735 312.9163669 -2.61940194 312.06417871 -8.28344727 310.95117188 C-9.85920532 310.64310356 -9.85920532 310.64310356 -11.46679688 310.32881165 C-14.8749927 308.93973293 -15.6330227 307.55094619 -17.13110352 304.24291992 C-17.93322748 301.48705889 -18.30480768 298.89719391 -18.46943665 296.03552246 C-18.51926256 295.20120193 -18.56908848 294.36688141 -18.62042427 293.50727844 C-18.6707575 292.59826279 -18.72109074 291.68924713 -18.77294922 290.75268555 C-18.82941557 289.78654831 -18.88588192 288.82041107 -18.94405937 287.82499695 C-19.13139752 284.59993286 -19.31301522 281.3745748 -19.49438477 278.14916992 C-19.62570886 275.85867112 -19.75724906 273.56818469 -19.88899231 271.27770996 C-20.3095616 263.93314281 -20.72089205 256.58807175 -21.13110352 249.24291992 C-21.19829338 248.04431335 -21.26548325 246.84570679 -21.33470917 245.61077881 C-22.15149774 231.03846704 -22.95008814 216.46527509 -23.72407341 201.890625 C-24.05472508 195.66513388 -24.38909209 189.4398939 -24.73242188 183.21508789 C-26.27483268 155.20756619 -27.72411025 127.29668001 -27.13110352 99.24291992 C-27.11691502 98.53104019 -27.10272652 97.81916046 -27.08810806 97.08570862 C-26.87961431 86.66989941 -26.58842867 76.25750074 -26.26226807 65.8447876 C-26.16944645 62.83447934 -26.08247955 59.82401233 -25.99538612 56.81353378 C-25.7723015 49.11733837 -25.52747189 41.42225158 -25.25445557 33.72766113 C-25.17780218 31.56217459 -25.1041269 29.39657786 -25.03509521 27.23083496 C-24.95535649 24.80949644 -24.85829768 22.38978432 -24.75219727 19.96948242 C-24.70377686 18.75083496 -24.65535645 17.5321875 -24.60546875 16.27661133 C-23.94835948 12.07422337 -22.36452916 9.38603198 -19.26391602 6.51245117 C-18.27004883 5.7912207 -18.27004883 5.7912207 -17.25610352 5.05541992 C-16.59868164 4.56686523 -15.94125977 4.07831055 -15.26391602 3.57495117 C-10.23843473 0.43632641 -5.8366081 -0.04347305 0 0 Z " fill="#FFFFFF" transform="translate(1451.131103515625,259.757080078125)"/>
<path d="M0 0 C0.76687637 -0.0065712 1.53375275 -0.0131424 2.3238678 -0.01991272 C4.87061691 -0.03965521 7.41730595 -0.0513326 9.96411133 -0.0612793 C10.84598932 -0.06535482 11.72786732 -0.06943035 12.63646889 -0.07362938 C17.33641956 -0.09452931 22.03634101 -0.10879411 26.73632812 -0.11816406 C30.55778608 -0.12689269 34.37886464 -0.14744033 38.20019531 -0.1796875 C57.1948032 -0.33640039 76.03340788 -0.33772192 94.90942383 2.0090332 C95.57773916 2.09131353 96.2460545 2.17359386 96.93462181 2.25836754 C108.15642122 3.6825403 120.95103545 5.37484736 130.35864258 12.17700195 C134.37307487 17.41275623 135.47386161 23.54722666 135.50390625 30.03051758 C135.51020554 30.98603516 135.51650482 31.94155273 135.522995 32.92602539 C135.52418839 33.96791016 135.52538177 35.00979492 135.52661133 36.08325195 C135.53066483 37.19667969 135.53471832 38.31010742 135.53889465 39.45727539 C135.54852494 43.19721204 135.54825435 46.93705429 135.54614258 50.67700195 C135.54723022 52.64092896 135.54723022 52.64092896 135.54833984 54.64453125 C135.55327549 76.5326314 135.07275285 98.39221857 134.42937088 120.26974106 C133.63038708 147.46341615 133.13474781 174.63794288 133.11187744 201.84420776 C133.10866765 204.34496672 133.10157726 206.84568797 133.09350586 209.34643555 C133.08182018 213.26381641 133.08132657 217.18104123 133.09000397 221.09842873 C133.09197695 222.52829722 133.09087036 223.95817409 133.0863266 225.38803673 C132.45945444 238.23554151 132.45945444 238.23554151 136.68572998 249.91960144 C139.82098798 252.2761352 143.65342354 251.56731434 147.35864258 251.17700195 C158.70585128 249.35158142 169.16997009 244.31179158 179.35864258 239.17700195 C179.38202524 214.20290707 179.39964811 189.22881383 179.41045475 164.2547102 C179.4156063 152.65824708 179.42262726 141.06179078 179.43408203 129.46533203 C179.44406373 119.35533322 179.45050431 109.24533934 179.45273107 99.13533574 C179.45403226 93.78449951 179.4570806 88.43367739 179.46437263 83.08284569 C179.47118786 78.04078024 179.47324838 72.99873465 179.47175026 67.95666504 C179.47202412 66.11168116 179.47399646 64.26669657 179.47784805 62.42171669 C179.49600086 53.27320018 179.37730314 44.28054602 178.35864258 35.17700195 C178.16417507 31.21752572 178.12945033 27.26587907 178.10864258 23.30200195 C178.07770508 21.79379883 178.07770508 21.79379883 178.04614258 20.25512695 C177.99525828 10.6634369 177.99525828 10.6634369 181.35864258 7.17700195 C187.95887711 3.43272237 194.68157107 3.51857225 202.13598633 3.2277832 C203.50668133 3.16576998 204.87733224 3.10277529 206.24794006 3.03886414 C209.13163538 2.90723753 212.01552395 2.7846204 214.89990234 2.66894531 C218.49125338 2.5246473 222.08152958 2.36302966 225.67184162 2.19505024 C240.70520631 1.49612586 255.72224485 1.05558651 270.77270508 1.05200195 C272.72061195 1.0507708 272.72061195 1.0507708 274.70787048 1.04951477 C290.40658564 1.10928284 305.45094638 2.6239175 320.85864258 5.61450195 C321.91623779 5.81970459 322.97383301 6.02490723 324.06347656 6.23632812 C337.14277246 8.94542165 337.14277246 8.94542165 341.35864258 14.17700195 C341.73244381 16.33152103 341.73244381 16.33152103 341.72996521 18.88380432 C341.73590384 19.85559443 341.74184246 20.82738453 341.74796104 21.82862282 C341.73864367 22.89693022 341.72932629 23.96523762 341.71972656 25.06591797 C341.72087275 26.19615072 341.72201893 27.32638348 341.72319984 28.49086571 C341.72111251 32.28361704 341.69510528 36.07576391 341.66723633 39.8684082 C341.66152371 41.20321473 341.65642209 42.53802401 341.6519146 43.87283516 C341.53792991 76.42498284 340.56066974 108.95675079 339.56268311 141.49145508 C339.16350248 154.5107989 338.77629062 167.5304995 338.39769697 180.55045748 C338.33157587 182.81983734 338.26488595 185.08920003 338.19816971 187.35856247 C337.45087928 212.89918776 336.99182872 238.43958304 336.72012377 263.98962736 C336.69740189 266.09625719 336.67308621 268.20286283 336.64829445 270.30946922 C336.61903468 272.85153926 336.59319269 275.39365241 336.57176781 277.93580055 C336.50279924 283.85256129 336.33994486 289.7609443 336.03089905 295.67027283 C335.97509202 296.77468184 335.91928499 297.87909086 335.86178684 299.01696682 C335.09657884 303.82291283 333.44587039 307.14552942 329.92114258 310.48950195 C326.381585 312.82043012 323.34243799 313.28277215 319.1619873 313.44911194 C318.33241516 313.48414322 317.50284302 313.5191745 316.64813232 313.55526733 C315.74629211 313.58907501 314.8444519 313.62288269 313.9152832 313.65771484 C312.95861755 313.69687515 312.0019519 313.73603546 311.01629639 313.77638245 C307.84931209 313.90492531 304.68212548 314.02740601 301.51489258 314.1496582 C299.30732049 314.23761257 297.0997604 314.32586872 294.89221191 314.41441345 C290.25872534 314.59936647 285.62513831 314.78146839 280.99145508 314.96142578 C275.07815665 315.19118936 269.16510496 315.42669373 263.25211334 315.66420841 C258.68802199 315.84710952 254.12383607 316.02755244 249.55961609 316.20721245 C247.3812981 316.29312654 245.20300365 316.37963999 243.0247345 316.46678352 C203.72048576 318.03277796 203.72048576 318.03277796 195.35864258 311.48950195 C191.97142923 308.20166895 190.21352692 304.48033363 188.35864258 300.17700195 C184.16575749 300.71801938 180.72969357 302.2726479 176.92724609 304.00830078 C156.84374049 313.14619084 135.57243911 319.679095 113.72387695 322.8347168 C111.57042163 323.14635432 109.42671272 323.49526057 107.28051758 323.8527832 C76.45808182 328.36562987 41.85885301 327.07488486 15.35864258 309.17700195 C-4.52546868 294.07645452 -12.67752855 271.36471746 -16.89135742 247.55200195 C-17.13607788 246.1767334 -17.13607788 246.1767334 -17.38574219 244.77368164 C-19.5185134 231.93846246 -19.81564989 219.00853432 -19.87963867 206.0246582 C-19.88439964 205.26528206 -19.88916061 204.50590591 -19.89406586 203.72351837 C-19.92986347 197.89552068 -19.94486283 192.06759533 -19.95385742 186.23950195 C-19.95668795 184.94621286 -19.95668795 184.94621286 -19.95957565 183.62679672 C-20.02608269 150.22006458 -18.56654845 117.03490131 -16.35112 83.71089172 C-13.79144704 49.91753303 -13.79144704 49.91753303 -15.64135742 16.17700195 C-16.41129431 6.33190729 -16.41129431 6.33190729 -13.89135742 2.55200195 C-9.47594369 -0.14630644 -5.05827534 0.01891063 0 0 Z " fill="#FFFFFF" transform="translate(1877.641357421875,257.822998046875)"/>
<path d="M0 0 C0.75514893 0.06107941 1.51029785 0.12215881 2.28833008 0.18508911 C18.58757509 1.51135407 34.8267723 3.43646164 51.0625 5.375 C52.28540741 5.5200296 53.50831482 5.6650592 54.76828003 5.81448364 C137.61357146 15.71524297 137.61357146 15.71524297 164.0625 38.9375 C164.81144531 39.58074219 165.56039063 40.22398437 166.33203125 40.88671875 C178.40836262 52.01669366 184.41605136 66.60124428 185.4375 82.80078125 C186.19859257 103.44816402 180.93148015 120.43055019 167.22265625 136.03125 C159.19973823 144.56277837 149.69212731 149.39925017 138.90063477 153.54125977 C135.16977507 154.98408848 132.21414093 156.41618726 129.0625 158.9375 C128.4025 158.9375 127.7425 158.9375 127.0625 158.9375 C127.72239834 161.99078511 127.72239834 161.99078511 129.83398438 163.02148438 C130.98350586 163.52131836 130.98350586 163.52131836 132.15625 164.03125 C133.44208984 164.60830688 133.44208984 164.60830688 134.75390625 165.19702148 C135.68074219 165.60637939 136.60757812 166.0157373 137.5625 166.4375 C160.14603968 176.82477603 182.05330239 190.91603892 192.1875 214.5625 C196.41006803 226.02375609 194.91992433 239.94362541 190.0625 250.9375 C185.89297612 258.94168963 180.27209487 265.45239409 174.0625 271.9375 C173.08410156 273.02804687 173.08410156 273.02804687 172.0859375 274.140625 C130.73522327 318.52478931 54.39962777 331.59180269 -3.20395279 334.03357315 C-14.31576213 334.39210116 -25.43511654 334.32208162 -36.55090332 334.2600708 C-39.83487191 334.24656697 -43.11870687 334.25192568 -46.40269089 334.25693321 C-110.29417461 334.33065496 -110.29417461 334.33065496 -130.375 319.625 C-138.60393007 310.99465871 -140.27253519 300.78822634 -140.1328125 289.25756836 C-140.12994012 288.3307362 -140.12706774 287.40390404 -140.12410831 286.44898605 C-140.11660774 284.4428181 -140.10445894 282.43666317 -140.08812141 280.43054771 C-140.06197339 277.21253465 -140.04808124 273.99466451 -140.03721619 270.77656555 C-140.02065799 266.18690609 -139.99922547 261.59730952 -139.97384644 257.00769043 C-139.91018842 245.11327479 -139.88809765 233.21878952 -139.87890625 221.32421875 C-139.87793001 220.15771915 -139.87695377 218.99121956 -139.87594795 217.78937149 C-139.86792388 199.56960013 -140.10122255 181.39241604 -140.875 163.1875 C-140.92074158 162.10084045 -140.96648315 161.01418091 -141.01361084 159.89459229 C-141.19049384 155.75178151 -141.37191601 151.60922026 -141.56170654 147.46697998 C-142.78737707 120.63073989 -143.05358032 93.75532542 -143.16766357 66.89437866 C-143.17930971 64.21115174 -143.19850423 61.52831441 -143.22149658 58.84512329 C-143.55263409 17.37749866 -143.55263409 17.37749866 -135.125 6.625 C-130.54082935 3.08863978 -125.43975506 2.64673564 -119.8034668 2.34326172 C-119.11432693 2.30395538 -118.42518707 2.26464905 -117.71516418 2.22415161 C-115.43938804 2.09671042 -113.16318674 1.9815538 -110.88671875 1.8671875 C-109.27038546 1.78084494 -107.65407828 1.69401257 -106.03779602 1.60671997 C-102.63442679 1.42487344 -99.23081057 1.24912778 -95.8269043 1.07763672 C-91.57085802 0.8627382 -87.31578817 0.63287636 -83.0607748 0.39852619 C-55.43389484 -1.11316109 -27.61402386 -2.38552785 0 0 Z M23.8125 84.25 C19.49003804 90.88806659 19.80784498 97.71039357 19.9375 105.375 C19.94652344 106.39271484 19.95554687 107.41042969 19.96484375 108.45898438 C19.98825302 110.95207156 20.021043 113.44465859 20.0625 115.9375 C24.2931489 117.23608367 26.87717093 116.14897719 30.8125 114.4375 C31.86812134 113.99229004 31.86812134 113.99229004 32.94506836 113.53808594 C42.69174976 109.34936334 52.26389888 104.74218594 61.84082031 100.18164062 C63.18674656 99.54275298 64.53277256 98.90407545 65.87890625 98.265625 C66.51964081 97.96011719 67.16037537 97.65460938 67.82052612 97.33984375 C71.15361364 95.76806301 74.46643195 94.38884311 77.96484375 93.234375 C81.16334798 92.31801846 81.16334798 92.31801846 81.88134766 90.01953125 C82.3221826 87.66747374 82.3221826 87.66747374 80.05859375 85.328125 C76.73304833 82.67462592 74.22677153 81.73855112 70.125 80.6875 C68.94035156 80.37296875 67.75570312 80.0584375 66.53515625 79.734375 C59.14400113 78.03831691 52.12173391 77.69054249 44.5625 77.625 C43.44746094 77.59599609 42.33242188 77.56699219 41.18359375 77.53710938 C33.07237359 77.47426917 29.50205211 78.40240477 23.8125 84.25 Z M14.0625 204.9375 C12.00212697 208.02805955 11.81450758 208.64676162 11.83544922 212.13354492 C11.83560028 212.97418991 11.83575134 213.8148349 11.83590698 214.68095398 C11.84622955 215.58416885 11.85655212 216.48738373 11.8671875 217.41796875 C11.8700174 218.34595779 11.87284729 219.27394684 11.87576294 220.23005676 C11.88696164 223.19516879 11.91206565 226.15997921 11.9375 229.125 C11.9475302 231.13476126 11.95665598 233.14452726 11.96484375 235.15429688 C11.98689996 240.08214753 12.02142771 245.00977262 12.0625 249.9375 C16.3686026 251.2944303 18.8701232 249.99008314 22.765625 248.0625 C23.42813263 247.74650848 24.09064026 247.43051697 24.77322388 247.10494995 C26.95832753 246.05988387 29.13519412 244.99870343 31.3125 243.9375 C32.83224945 243.20725525 34.35260311 242.47826674 35.87353516 241.75048828 C39.02688227 240.24073699 42.17768657 238.72584548 45.32714844 237.20800781 C49.87324839 235.02219916 54.43653465 232.87476171 59.0078125 230.7421875 C59.72223511 230.40882385 60.43665771 230.07546021 61.17272949 229.73199463 C63.92144791 228.45021985 66.67071261 227.16961962 69.42004395 225.88916016 C77.69845264 222.02998157 85.91638406 218.06991551 94.0625 213.9375 C77.74440104 203.05876736 49.89363238 204.76100016 31 204.625 C30.17916931 204.61528168 29.35833862 204.60556335 28.51263428 204.59555054 C26.1630748 204.57194264 23.81449818 204.56964444 21.46484375 204.57421875 C20.74800919 204.56511475 20.03117462 204.55601074 19.2926178 204.54663086 C17.08195048 204.53204652 17.08195048 204.53204652 14.0625 204.9375 Z " fill="#FFFFFF" transform="translate(272.9375,249.0625)"/>
<path d="M0 0 C8.15921317 0.77957395 16.34858027 0.64476898 24.53686523 0.62646484 C27.35601293 0.62115162 30.17499806 0.62641039 32.99414062 0.6328125 C34.84505242 0.63215074 36.69596412 0.63086756 38.546875 0.62890625 C39.76661766 0.6319426 39.76661766 0.6319426 41.01100159 0.63504028 C46.65750559 0.61344067 52.26642452 0.33819098 57.90039062 -0.00390625 C66.90079346 -0.54025389 75.86861333 -0.65044523 84.8828125 -0.63671875 C86.48983271 -0.63739551 88.09685282 -0.63836859 89.70387268 -0.63961792 C93.03395586 -0.64107448 96.36401183 -0.63900527 99.6940918 -0.63427734 C103.93214522 -0.62854845 108.17013572 -0.63189198 112.40818691 -0.63784981 C115.71212733 -0.64148335 119.01605309 -0.64030461 122.31999397 -0.63772202 C123.88228424 -0.63706215 125.44457591 -0.63784767 127.00686455 -0.64020157 C134.74851344 -0.64932238 142.41523505 -0.57168396 150.12263489 0.26904297 C157.88062426 1.06912948 165.63890376 0.6784499 173.32421875 -0.50390625 C178.89923108 -0.81362916 183.15860656 -0.73768449 188.32421875 1.49609375 C189.47921875 1.45484375 190.63421875 1.41359375 191.82421875 1.37109375 C196.18284484 1.52675897 197.2874984 2.42937047 200.32421875 5.49609375 C201.53353882 8.68722534 201.53353882 8.68722534 202.37255859 12.55029297 C202.53330997 13.26425861 202.69406136 13.97822426 202.85968399 14.71382523 C203.39516867 17.11410555 203.90239771 19.51949542 204.41015625 21.92578125 C204.79142595 23.660854 205.17448191 25.39553504 205.55917358 27.12985229 C206.39261062 30.90494027 207.21356356 34.68246053 208.02526855 38.46228027 C209.34880492 44.62413069 210.70040239 50.77963165 212.05566406 56.93457031 C214.008451 65.81518379 215.95128452 74.69791777 217.88696289 83.58227539 C229.49469389 136.93512085 229.49469389 136.93512085 242.26013184 190.01867676 C247.44298356 210.5589399 252.15117123 231.18284342 256.69921875 251.87109375 C257.03262879 253.38453493 257.36605349 254.89797288 257.69949341 256.41140747 C258.48294957 259.97084612 259.26261709 263.5310933 260.03880882 267.09212303 C260.46035867 269.02562649 260.88351373 270.95877975 261.30671692 272.891922 C263.09973056 281.17739084 264.50948578 289.05429984 264.57421875 297.55859375 C264.60515625 298.58049805 264.60515625 298.58049805 264.63671875 299.62304688 C264.67291067 304.33251996 263.9222163 307.558138 261.32421875 311.49609375 C258.34078418 313.39091263 256.05893011 313.74373422 252.55859375 313.7265625 C251.04543579 313.72474976 251.04543579 313.72474976 249.50170898 313.72290039 C248.37063721 313.7099292 247.23956543 313.69695801 246.07421875 313.68359375 C244.871604 313.67642334 243.66898926 313.66925293 242.42993164 313.66186523 C237.72772561 313.62810981 233.02607121 313.56166486 228.32421875 313.49609375 C227.24622009 313.48171265 226.16822144 313.46733154 225.05755615 313.45251465 C216.29204203 313.33490569 207.526876 313.2001219 198.76171875 313.05859375 C197.49042114 313.03912689 196.21912354 313.01966003 194.90930176 312.99960327 C191.25453245 312.94226374 187.59993673 312.87837823 183.9453125 312.8125 C182.83290695 312.7957724 181.7205014 312.7790448 180.5743866 312.7618103 C179.5462233 312.74188019 178.51806 312.72195007 177.45874023 312.70141602 C176.11101784 312.67809959 176.11101784 312.67809959 174.73606873 312.65431213 C172.32421875 312.49609375 172.32421875 312.49609375 170.06581116 311.92076111 C169.20372292 311.71055077 169.20372292 311.71055077 168.32421875 311.49609375 C167.99421875 311.82609375 167.66421875 312.15609375 167.32421875 312.49609375 C165.53646567 312.52519363 163.74746591 312.48243444 161.9609375 312.41015625 C160.28741211 312.34441406 160.28741211 312.34441406 158.58007812 312.27734375 C157.40251953 312.22578125 156.22496094 312.17421875 155.01171875 312.12109375 C153.30918945 312.05535156 153.30918945 312.05535156 151.57226562 311.98828125 C144.1360756 311.68285873 136.73531991 311.17635198 129.32421875 310.49609375 C125.79132903 303.48539276 123.92092198 296.45615373 122.26171875 288.80859375 C122.00567871 287.66044189 121.74963867 286.51229004 121.48583984 285.3293457 C120.98321353 283.06848709 120.48468826 280.80671195 119.99072266 278.54394531 C119.43020948 275.98077812 118.856817 273.4213102 118.2734375 270.86328125 C116.1621974 261.43774489 116.1621974 261.43774489 116.32421875 256.49609375 C115.22787109 256.65907959 114.13152344 256.82206543 113.00195312 256.98999023 C107.82353741 257.63402622 102.69213002 257.62162726 97.48046875 257.59375 C96.47077026 257.59233505 95.46107178 257.5909201 94.42077637 257.58946228 C91.22189264 257.58390156 88.02308103 257.57135645 84.82421875 257.55859375 C82.64453227 257.55357367 80.46484468 257.54901165 78.28515625 257.54492188 C72.96481949 257.53394503 67.64452427 257.51724643 62.32421875 257.49609375 C62.26929764 258.13245255 62.21437653 258.76881134 62.15779114 259.42445374 C61.67508904 264.66363161 60.98397204 269.72375324 59.8359375 274.8671875 C59.69146683 275.51502701 59.54699615 276.16286652 59.39814758 276.83033752 C59.09432933 278.18451779 58.78752751 279.53803205 58.4777832 280.89086914 C58.0137871 282.92452831 57.56396497 284.96097191 57.11523438 286.99804688 C52.4452034 307.84643902 52.4452034 307.84643902 47.51171875 311.68359375 C43.34804402 312.7449226 39.28491255 313.47644065 35.32421875 311.49609375 C28.09945906 311.14112001 20.83569447 311.44290411 13.61767578 311.8341217 C-2.97744129 312.71795113 -19.59085443 312.82993392 -36.20489502 313.02832031 C-39.4761373 313.06839976 -42.74731881 313.11258507 -46.01850891 313.15668678 C-53.96309742 313.26360923 -61.90761595 313.35306918 -69.85261536 313.42322731 C-74.36471631 313.46540269 -78.87548787 313.53301006 -83.3868866 313.62276936 C-85.50861954 313.66263524 -87.63026845 313.69362855 -89.75219727 313.72093201 C-92.33627252 313.75496996 -94.92021224 313.80375116 -97.50366211 313.87001038 C-98.64456299 313.88059982 -99.78546387 313.89118927 -100.9609375 313.90209961 C-101.949729 313.9202623 -102.93852051 313.93842499 -103.95727539 313.95713806 C-107.48799797 313.35834606 -109.14248808 311.97976503 -111.67578125 309.49609375 C-115.93846935 296.70802946 -111.65291866 281.01531015 -108.86328125 268.30859375 C-108.45373718 266.3831737 -108.04515169 264.45754954 -107.63745117 262.53173828 C-103.93482347 245.18277158 -99.93969639 227.89664342 -95.82446289 210.64135742 C-95.57468532 209.59370335 -95.32490774 208.54604927 -95.06756115 207.4666481 C-93.24433773 199.8366349 -91.39076672 192.21435028 -89.5246582 184.59472656 C-81.16429072 150.41174551 -73.38321083 116.13160658 -65.89501953 81.74584961 C-63.62632669 71.33334986 -61.34715618 60.92314108 -59.06688309 50.51317215 C-58.2867953 46.94667903 -57.51010785 43.37945954 -56.73397827 39.81210327 C-55.60062976 34.61206411 -54.45228709 29.41563221 -53.28649139 24.22277069 C-52.89128981 22.45828872 -52.4998481 20.69295864 -52.11292267 18.92664337 C-51.61555919 16.66828779 -51.09964506 14.41513498 -50.57666016 12.16259766 C-50.30222076 10.95262115 -50.02778137 9.74264465 -49.74502563 8.4960022 C-48.57319415 5.20827189 -47.39690044 3.64804499 -44.67578125 1.49609375 C-42.3359375 1.17578125 -42.3359375 1.17578125 -39.73828125 1.37109375 C-35.47570557 1.54024358 -31.68603497 1.25837241 -27.48828125 0.49609375 C-18.3664668 -1.03324732 -9.17860137 -1.01008965 0 0 Z M89.32421875 78.49609375 C87.66053489 84.78257897 86.44735996 91.07795921 85.35302734 97.48608398 C85.16741745 98.55853867 84.98180756 99.63099335 84.79057312 100.73594666 C84.18170727 104.25836785 83.5771215 107.7815087 82.97265625 111.3046875 C82.54976822 113.75712625 82.12663851 116.20952333 81.70327759 118.66188049 C80.81892041 123.7881916 79.93650894 128.91483228 79.05566406 134.04174805 C77.9239214 140.62889267 76.78882221 147.21545153 75.65247154 153.80180264 C74.57056362 160.07340195 73.49028768 166.34528202 72.41015625 172.6171875 C72.20280224 173.82041594 71.99544823 175.02364437 71.78181076 176.26333427 C71.19917651 179.64602318 70.61770091 183.02890901 70.03662109 186.41186523 C69.77483818 187.93049164 69.77483818 187.93049164 69.50776672 189.47979736 C69.35078812 190.39516769 69.19380951 191.31053802 69.03207397 192.25364685 C68.82580163 193.45344508 68.82580163 193.45344508 68.61536217 194.67748165 C68.2978724 196.35370329 68.2978724 196.35370329 68.32421875 197.49609375 C72.11586949 197.52502745 75.90749202 197.54286976 79.69921875 197.55859375 C81.31957031 197.57116211 81.31957031 197.57116211 82.97265625 197.58398438 C84.51953125 197.58881836 84.51953125 197.58881836 86.09765625 197.59375 C87.52730713 197.60160522 87.52730713 197.60160522 88.98583984 197.60961914 C91.34746281 197.65251974 91.34746281 197.65251974 93.32421875 196.49609375 C99.33163237 196.17991409 104.51420967 197.03033276 110.32421875 198.49609375 C108.82901515 184.96040201 106.53716578 171.59367511 104.19140625 158.18359375 C103.79037169 155.87481291 103.38967148 153.56597397 102.98928833 151.25708008 C101.94377195 145.23314241 100.89376927 139.20999546 99.84277344 133.18701172 C98.76742784 127.01968442 97.69640559 120.85160651 96.625 114.68359375 C94.52892779 102.62036267 92.42810688 90.55796397 90.32421875 78.49609375 C89.99421875 78.49609375 89.66421875 78.49609375 89.32421875 78.49609375 Z " fill="#FFFFFF" transform="translate(623.67578125,259.50390625)"/>
<path d="M0 0 C60.19802311 -1.66484507 118.21160306 18.19937498 162.23193359 59.453125 C165.72567944 62.82101545 168.90651355 66.28439453 171.94287109 70.06640625 C172.71115234 71.00871094 173.47943359 71.95101562 174.27099609 72.921875 C211.06791943 118.85374883 222.24929354 180.3710108 216.37646484 237.8125 C211.32973045 282.78014905 194.23572216 325.90346448 162.94287109 359.06640625 C161.85554189 360.35471099 160.77211147 361.6463178 159.69287109 362.94140625 C145.94873451 378.64899092 128.71420506 390.41210151 110.94287109 401.06640625 C110.32250977 401.44007324 109.70214844 401.81374023 109.06298828 402.19873047 C71.99341419 424.16082357 27.47814377 433.56485415 -15.24462891 433.37890625 C-16.14198761 433.3767511 -17.03934631 433.37459595 -17.96389771 433.37237549 C-31.85398664 433.31899894 -45.39911793 432.79703496 -59.05712891 430.06640625 C-60.61077148 429.76041504 -60.61077148 429.76041504 -62.19580078 429.44824219 C-99.07309826 421.9836861 -132.59410305 407.17414636 -161.28564453 382.57910156 C-162.53374447 381.51333154 -163.79410004 380.46183159 -165.06298828 379.42089844 C-165.70558594 378.88883789 -166.34818359 378.35677734 -167.01025391 377.80859375 C-167.88665527 377.09098877 -167.88665527 377.09098877 -168.78076172 376.35888672 C-170.05712891 375.06640625 -170.05712891 375.06640625 -170.05712891 373.06640625 C-170.63333984 372.82277344 -171.20955078 372.57914063 -171.80322266 372.328125 C-185.32743472 364.7573789 -195.73391339 344.25571921 -203.05712891 331.06640625 C-203.56107178 330.16148437 -203.56107178 330.16148437 -204.07519531 329.23828125 C-217.38502069 304.94184722 -224.70363221 278.4310553 -228.05712891 251.06640625 C-228.1528418 250.36249756 -228.24855469 249.65858887 -228.34716797 248.93334961 C-232.90676236 211.21864009 -228.50509216 170.84905727 -213.05712891 136.06640625 C-212.45143066 134.69887207 -212.45143066 134.69887207 -211.83349609 133.30371094 C-206.22643115 120.80332784 -200.14453779 109.13022212 -192.05712891 98.06640625 C-190.94917969 96.5040625 -190.94917969 96.5040625 -189.81884766 94.91015625 C-185.13148723 88.449425 -180.011541 82.56102414 -174.55712891 76.75390625 C-172.58398332 74.63277474 -170.70690963 72.49059583 -168.86962891 70.25390625 C-165.61014023 66.42834391 -161.91668423 63.27389059 -158.05712891 60.06640625 C-157.24091064 59.37369629 -157.24091064 59.37369629 -156.40820312 58.66699219 C-112.41088146 21.37234148 -57.42308245 1.85367653 0 0 Z M-124.08984375 117.85351562 C-153.32285644 150.73612013 -161.56474487 192.39384963 -160.05712891 235.06640625 C-158.73070389 255.01025986 -153.87573561 274.14560694 -145.05712891 292.06640625 C-144.74904297 292.70030273 -144.44095703 293.33419922 -144.12353516 293.98730469 C-137.32559359 307.81589744 -128.7104263 319.92352717 -118.05712891 331.06640625 C-117.45900391 331.72769531 -116.86087891 332.38898438 -116.24462891 333.0703125 C-91.294713 359.68714089 -52.17563775 372.04293762 -16.59228516 373.28515625 C30.05157777 374.33810997 73.19038732 358.17127924 106.94287109 326.06640625 C107.71244141 325.37289063 108.48201172 324.679375 109.27490234 323.96484375 C116.75097095 316.98717972 122.35336866 308.57061907 127.94287109 300.06640625 C128.33394043 299.4719873 128.72500977 298.87756836 129.12792969 298.26513672 C152.52115244 261.94994331 155.30634306 213.71080982 146.74536133 172.35253906 C138.82674269 137.29086925 117.29272871 105.742372 86.89208984 86.44921875 C70.56363736 76.42645302 52.6680481 69.93389043 33.94287109 66.06640625 C33.2185791 65.9154248 32.49428711 65.76444336 31.74804688 65.60888672 C-26.25038904 54.04413084 -84.30015605 75.07050949 -124.08984375 117.85351562 Z " fill="#FFFFFF" transform="translate(1162.05712890625,203.93359375)"/>
<path d="M0 0 C0.14672852 3.08007812 0.14672852 3.08007812 -0.18359375 7.03125 C-0.24018661 7.73987183 -0.29677948 8.44849365 -0.35508728 9.17858887 C-1.03904401 17.30921431 -2.03666085 25.40676858 -3.0625 33.5 C-3.25109376 35.01687211 -3.43924656 36.5337991 -3.62695312 38.05078125 C-4.0795857 41.70116382 -4.53806947 45.35078089 -5 49 C-11.49575998 48.32511585 -17.71265274 47.00674342 -24.0625 45.5 C-39.57255577 41.83455805 -55.47176718 39.0141868 -70.25 46.6875 C-83.84519128 58.11981994 -87.54459561 73.70071496 -89.28173828 90.76806641 C-90.96977851 111.911234 -91.77147889 137.37134894 -80 156 C-79.401875 156.94875 -78.80375 157.8975 -78.1875 158.875 C-73.34375867 163.58034872 -66.8335154 166.12338755 -60.125 166.3125 C-43.91126493 166.03733217 -27.3485005 156.42245324 -14.59375 146.9609375 C-13 146 -13 146 -10 146 C-9.42779005 153.74110604 -8.85841712 161.48241699 -8.29101562 169.22387695 C-8.09765894 171.85738857 -7.90365294 174.49085261 -7.70898438 177.12426758 C-7.42928059 180.9095446 -7.15191257 184.69498664 -6.875 188.48046875 C-6.78750488 189.65772018 -6.70000977 190.83497162 -6.60986328 192.04789734 C-6.52978027 193.14866104 -6.44969727 194.24942474 -6.3671875 195.38354492 C-6.29612793 196.34951096 -6.22506836 197.31547699 -6.15185547 198.31071472 C-5.73956071 205.61225101 -5.73956071 205.61225101 -7.22363281 207.82177734 C-11.72888159 212.09171527 -16.4062809 215.47641862 -21.75 218.625 C-22.94677368 219.33873779 -22.94677368 219.33873779 -24.16772461 220.06689453 C-35.26422158 226.60298679 -46.51223411 230.93496892 -59 234 C-59.763125 234.19126465 -60.52625 234.3825293 -61.3125 234.57958984 C-69.64336087 236.38750236 -77.9669182 236.30302927 -86.44873047 236.26074219 C-88.96737413 236.25013737 -91.48528587 236.26062511 -94.00390625 236.2734375 C-108.87124508 236.28769164 -123.96120711 235.61257315 -138.375 231.6875 C-139.61830078 231.36048096 -139.61830078 231.36048096 -140.88671875 231.02685547 C-165.46658076 224.38016261 -185.17129968 211.38532153 -198.22265625 189.2109375 C-211.18514572 165.79298949 -214.22756277 140.40479833 -214.25 114.0625 C-214.25100708 113.24085358 -214.25201416 112.41920715 -214.25305176 111.57266235 C-214.24275823 99.14700872 -213.71036111 87.16914533 -211 75 C-210.85546387 74.30793457 -210.71092773 73.61586914 -210.56201172 72.90283203 C-203.61452237 40.02728167 -186.40690505 11.66092387 -159 -8 C-157.80697266 -8.86044922 -157.80697266 -8.86044922 -156.58984375 -9.73828125 C-111.1807833 -39.45038253 -43.24175777 -28.82783852 0 0 Z " fill="#FFFFFF" transform="translate(1257,315)"/>
</svg>
