<svg xmlns="http://www.w3.org/2000/svg" xmlns:xlink="http://www.w3.org/1999/xlink" width="40" zoomAndPan="magnify" viewBox="0 0 30 30.000001" height="40" preserveAspectRatio="xMidYMid meet" version="1.2"><defs/><g id="860b634b9b"><g style="fill:#ffffff;fill-opacity:1;"><g transform="translate(2.856351, 26.107937)"><path style="stroke:none" d="M 14 -12.046875 C 11.78125 -12.046875 10.691406 -12.601562 10.734375 -13.71875 C 10.734375 -14.769531 11.800781 -15.296875 13.9375 -15.296875 C 14.4375 -15.296875 14.914062 -15.238281 15.375 -15.125 C 16.125 -15.882812 16.5 -17.03125 16.5 -18.5625 C 16.5 -21.21875 14.726562 -22.546875 11.1875 -22.546875 C 9.332031 -22.546875 7.570312 -22.144531 5.90625 -21.34375 C 5.28125 -21.039062 4.722656 -20.765625 4.234375 -20.515625 C 3.742188 -20.265625 3.289062 -20.140625 2.875 -20.140625 C 2.46875 -20.140625 2.265625 -20.265625 2.265625 -20.515625 C 2.265625 -20.816406 2.492188 -21.257812 2.953125 -21.84375 C 3.410156 -22.425781 4.050781 -23.015625 4.875 -23.609375 C 6.976562 -25.066406 9.367188 -25.8125 12.046875 -25.84375 C 15.546875 -25.84375 18.117188 -25.144531 19.765625 -23.75 C 21.179688 -22.582031 21.890625 -20.988281 21.890625 -18.96875 C 21.890625 -16.632812 20.742188 -14.851562 18.453125 -13.625 C 20.648438 -12.363281 21.957031 -10.816406 22.375 -8.984375 C 22.507812 -8.347656 22.578125 -7.503906 22.578125 -6.453125 C 22.578125 -5.398438 22.289062 -4.40625 21.71875 -3.46875 C 21.144531 -2.53125 20.378906 -1.738281 19.421875 -1.09375 C 17.492188 0.132812 15.035156 0.75 12.046875 0.75 C 9.921875 0.75 7.550781 0.269531 4.9375 -0.6875 C 3.195312 -1.320312 1.914062 -2.085938 1.09375 -2.984375 C 0.6875 -3.421875 0.488281 -3.851562 0.5 -4.28125 C 0.507812 -4.71875 0.722656 -4.9375 1.140625 -4.9375 C 1.566406 -4.9375 2.375 -4.789062 3.5625 -4.5 L 3.5625 -4.53125 C 3.5625 -6.3125 3.769531 -8.140625 4.1875 -10.015625 C 4.894531 -13.285156 5.71875 -15.847656 6.65625 -17.703125 C 7.664062 -19.765625 8.707031 -20.796875 9.78125 -20.796875 C 10.070312 -20.796875 10.21875 -20.28125 10.21875 -19.25 C 10.21875 -18.21875 10.117188 -17.164062 9.921875 -16.09375 C 9.734375 -15.019531 9.53125 -13.960938 9.3125 -12.921875 C 9.09375 -11.878906 8.882812 -10.929688 8.6875 -10.078125 C 8.5 -9.234375 8.40625 -8.628906 8.40625 -8.265625 L 8.0625 -3.09375 C 9.414062 -2.726562 10.5625 -2.546875 11.5 -2.546875 C 12.4375 -2.546875 13.28125 -2.703125 14.03125 -3.015625 C 15.925781 -3.816406 16.875 -5.210938 16.875 -7.203125 C 16.875 -8.390625 16.757812 -9.375 16.53125 -10.15625 C 16.3125 -10.9375 15.898438 -11.625 15.296875 -12.21875 C 14.773438 -12.101562 14.34375 -12.046875 14 -12.046875 Z M 14 -12.046875 "/></g></g></g></svg>