<?xml version="1.0" standalone="no"?>
<!DOCTYPE svg PUBLIC "-//W3C//DTD SVG 20010904//EN"
 "http://www.w3.org/TR/2001/REC-SVG-20010904/DTD/svg10.dtd">
<svg version="1.0" xmlns="http://www.w3.org/2000/svg"
 width="2000.000000pt" height="700.000000pt" viewBox="0 0 2000.000000 700.000000"
 preserveAspectRatio="xMidYMid meet">
<metadata>
Created by potrace 1.16, written by Peter Selinger 2001-2019
</metadata>
<g transform="translate(0.000000,700.000000) scale(0.100000,-0.100000)"
fill="#000000" stroke="none">
<path d="M9563 5296 c-3 -4 -31 -5 -62 -2 -42 5 -52 4 -41 -4 11 -9 5 -10 -27
-5 -30 5 -43 3 -43 -5 0 -7 -7 -10 -16 -6 -9 3 -21 3 -27 -1 -13 -8 -30 -13
-68 -17 -14 -1 -31 -6 -37 -10 -7 -4 -17 -4 -22 -1 -6 4 -22 -1 -36 -10 -13
-9 -29 -13 -35 -9 -6 3 -18 -1 -27 -8 -9 -8 -34 -15 -55 -15 -25 -1 -49 -10
-72 -27 -19 -15 -41 -26 -47 -25 -34 4 -57 -3 -82 -26 -15 -14 -34 -25 -43
-25 -20 0 -95 -41 -106 -57 -4 -7 -17 -13 -27 -13 -11 0 -20 -4 -20 -9 0 -5
-14 -12 -30 -16 -17 -4 -38 -18 -47 -31 -9 -14 -22 -23 -29 -20 -7 3 -22 -6
-33 -19 -10 -14 -25 -25 -32 -25 -8 0 -38 -23 -68 -50 -30 -28 -58 -50 -62
-50 -8 0 -122 -116 -197 -200 -73 -82 -82 -93 -82 -101 0 -5 -11 -18 -24 -31
-31 -30 -94 -149 -88 -167 3 -8 0 -11 -7 -7 -10 7 -34 -35 -43 -75 -2 -8 -7
-17 -11 -20 -5 -3 -10 -12 -11 -20 -2 -8 -6 -21 -10 -30 -4 -9 -6 -21 -4 -27
2 -6 -5 -17 -15 -24 -12 -9 -21 -35 -27 -77 -5 -35 -13 -67 -19 -70 -16 -10
-29 -54 -25 -85 2 -16 0 -34 -4 -40 -7 -12 -13 -63 -13 -108 0 -16 -4 -28 -10
-28 -6 0 -7 -14 -3 -35 3 -19 2 -35 -2 -35 -5 0 -9 -76 -9 -170 0 -93 4 -170
8 -170 5 0 6 -18 2 -40 -4 -26 -3 -40 4 -40 5 0 10 -12 10 -27 -1 -16 2 -50 5
-78 3 -27 6 -62 6 -77 0 -16 5 -28 11 -28 6 0 8 -7 5 -16 -3 -8 2 -30 11 -47
9 -18 20 -58 24 -90 5 -38 14 -66 28 -81 12 -12 21 -32 21 -44 0 -31 21 -72
38 -72 10 0 12 -7 8 -26 -5 -18 0 -34 16 -57 25 -34 40 -61 70 -120 10 -20 27
-43 38 -49 11 -7 20 -18 20 -24 0 -6 22 -36 50 -65 27 -30 50 -59 50 -64 0
-12 86 -87 109 -96 9 -3 16 -11 16 -17 0 -11 80 -75 108 -85 9 -3 17 -13 17
-21 0 -9 12 -19 28 -22 15 -4 38 -18 51 -31 13 -13 35 -26 48 -29 12 -4 23
-10 23 -15 0 -5 6 -9 14 -9 8 0 16 -7 20 -15 3 -8 17 -15 31 -15 14 0 25 -4
25 -9 0 -12 61 -36 83 -33 9 2 20 -4 23 -12 3 -9 14 -16 23 -16 9 0 22 -5 28
-11 7 -7 20 -13 30 -14 46 -5 82 -18 76 -28 -4 -6 2 -8 17 -4 12 3 34 1 49 -5
14 -6 29 -10 34 -10 4 1 23 -4 42 -12 18 -8 44 -12 57 -9 19 4 20 3 8 -7 -12
-9 -9 -11 18 -6 20 3 32 1 32 -5 0 -7 10 -9 25 -5 14 4 31 3 38 -1 15 -10 66
-12 307 -11 242 0 262 1 278 11 7 5 21 6 31 2 11 -3 22 -1 26 5 4 6 20 8 42 4
28 -5 34 -4 28 6 -6 10 -4 12 9 7 10 -4 23 -4 29 0 12 8 26 12 62 18 11 2 20
4 20 5 0 1 14 3 30 5 17 1 52 12 79 24 26 12 50 20 53 18 6 -7 74 22 95 40 9
8 23 13 30 10 17 -6 88 30 88 44 0 7 10 9 25 5 18 -5 27 -2 31 9 4 8 12 15 19
15 7 0 18 7 25 15 7 8 20 15 29 15 9 0 32 13 51 30 19 16 43 29 53 30 9 0 25
9 34 20 10 11 21 20 26 20 9 0 40 23 102 76 75 65 245 238 245 250 0 8 7 14
15 14 17 0 34 30 28 48 -3 8 4 16 16 19 12 3 31 24 43 46 11 22 26 47 34 54 7
8 11 20 8 28 -4 8 -1 15 5 15 15 0 52 61 44 73 -3 6 1 15 9 21 21 15 50 74 43
86 -3 6 6 26 21 46 20 26 28 47 27 74 0 24 4 41 12 44 8 3 13 19 13 36 -1 18
5 35 12 40 7 4 9 16 5 29 -4 13 -2 21 5 21 7 0 9 7 6 16 -3 9 1 31 10 49 9 19
13 38 10 44 -4 5 -1 13 5 17 7 4 9 24 5 58 -5 38 -4 47 4 36 8 -11 9 -2 5 37
-4 29 -4 57 0 63 9 15 9 315 0 330 -4 6 -4 37 -1 68 5 43 4 53 -4 42 -9 -12
-10 -8 -6 18 3 19 1 32 -5 32 -6 0 -7 14 -3 35 3 20 2 35 -3 35 -10 0 -14 16
-15 68 -1 17 -5 32 -9 32 -5 0 -6 12 -3 28 4 19 -2 38 -21 66 -14 21 -24 44
-21 52 8 21 -14 88 -35 106 -11 9 -19 29 -19 47 0 19 -8 35 -21 45 -14 10 -19
21 -15 32 4 11 -3 30 -21 53 -16 20 -37 53 -48 74 -11 20 -26 37 -33 37 -8 0
-12 6 -9 14 3 8 -4 26 -16 39 -12 14 -40 46 -62 73 -22 26 -71 77 -109 113
-38 36 -84 81 -103 99 -18 17 -41 32 -49 32 -9 0 -25 11 -36 25 -11 14 -24 22
-29 19 -6 -3 -22 6 -36 20 -14 14 -34 26 -44 26 -10 0 -22 7 -27 16 -4 8 -27
22 -51 30 -23 8 -52 23 -63 34 -12 11 -31 19 -42 18 -12 -1 -35 5 -51 14 -55
29 -81 39 -106 43 -13 1 -40 9 -59 18 -19 8 -41 12 -49 9 -9 -3 -11 0 -6 8 6
10 2 12 -13 8 -12 -4 -24 -2 -27 2 -3 4 -20 8 -37 8 -39 1 -65 6 -74 15 -4 4
-18 4 -30 1 -15 -4 -24 -2 -24 5 0 8 -12 10 -37 6 -30 -5 -35 -4 -23 5 12 9 4
10 -32 5 -27 -3 -53 -3 -59 0 -16 10 -340 11 -346 1z m237 -537 c-11 -7 -1 -8
33 -3 30 4 47 3 47 -4 0 -6 19 -10 43 -10 47 0 73 -5 83 -15 4 -4 19 -4 33 -2
14 3 19 2 11 -1 -18 -9 63 -34 88 -27 10 2 26 -5 36 -16 11 -12 29 -21 42 -21
13 0 25 -4 29 -10 3 -5 13 -6 22 -3 9 4 19 -1 25 -10 5 -10 15 -17 22 -17 8 0
16 -7 20 -15 3 -8 17 -15 30 -15 15 0 30 -8 35 -19 6 -10 23 -23 38 -29 16 -6
48 -29 72 -51 24 -23 52 -41 63 -41 15 0 18 -5 14 -16 -9 -23 13 -46 36 -38
13 4 18 1 17 -8 -5 -21 30 -78 47 -78 8 0 12 -4 9 -10 -3 -5 6 -21 20 -36 14
-14 23 -29 20 -33 -5 -9 29 -58 53 -76 7 -6 12 -15 11 -20 -5 -20 14 -66 32
-79 12 -8 18 -22 16 -35 -4 -27 26 -121 43 -131 7 -5 9 -20 5 -46 -5 -31 -4
-36 5 -24 9 12 10 7 5 -22 -4 -25 -2 -38 5 -38 7 0 9 -12 4 -35 -4 -25 -3 -35
6 -35 9 0 11 -13 6 -50 -4 -32 -3 -50 4 -50 6 0 10 -25 10 -60 0 -33 -4 -60
-9 -60 -6 0 -8 -30 -5 -72 4 -57 3 -70 -6 -58 -9 12 -10 7 -5 -23 4 -27 3 -37
-4 -32 -6 3 -14 -2 -18 -11 -4 -10 -2 -19 5 -22 15 -5 16 -38 2 -47 -6 -4 -8
-16 -4 -27 4 -13 0 -24 -12 -32 -12 -9 -17 -25 -16 -52 1 -25 -2 -34 -7 -26
-6 10 -10 7 -15 -13 -4 -14 -4 -31 0 -36 3 -6 -3 -19 -15 -30 -11 -10 -26 -38
-33 -62 -7 -23 -20 -51 -30 -61 -17 -19 -22 -31 -19 -48 0 -4 -13 -21 -29 -38
-17 -17 -30 -35 -30 -40 0 -19 -156 -187 -181 -195 -11 -4 -19 -12 -19 -19 0
-7 -11 -18 -25 -24 -14 -6 -25 -16 -25 -21 0 -5 -14 -14 -30 -21 -17 -7 -35
-21 -41 -31 -5 -11 -18 -19 -28 -19 -10 0 -30 -11 -44 -24 -14 -13 -42 -27
-62 -30 -21 -4 -48 -19 -62 -32 -14 -14 -31 -23 -37 -21 -7 3 -26 -1 -42 -8
-16 -7 -46 -20 -67 -29 -20 -10 -42 -14 -48 -11 -6 4 -19 -1 -29 -10 -13 -12
-28 -15 -44 -11 -14 3 -27 2 -31 -4 -3 -5 -12 -7 -20 -3 -8 3 -15 1 -15 -5 0
-12 -32 -14 -247 -14 -203 0 -243 2 -243 14 0 6 -7 8 -15 5 -8 -4 -17 -2 -21
4 -3 6 -12 8 -20 5 -7 -3 -16 -1 -20 5 -3 6 -12 8 -20 5 -7 -3 -16 -1 -19 4
-4 6 -16 8 -29 4 -14 -3 -27 1 -35 10 -8 9 -28 16 -46 16 -20 0 -35 6 -39 15
-3 8 -12 15 -20 15 -9 0 -30 9 -48 20 -18 11 -44 20 -56 20 -15 0 -26 7 -29
20 -3 10 -16 23 -28 27 -39 13 -183 132 -205 170 -11 19 -29 37 -40 40 -11 3
-18 9 -15 13 3 4 -10 27 -28 51 -18 24 -43 61 -56 82 -13 20 -32 42 -42 48
-12 6 -18 17 -15 27 7 20 -28 82 -45 82 -6 0 -9 9 -6 20 3 11 1 23 -4 26 -5 3
-7 9 -4 14 3 5 1 18 -5 30 -5 11 -14 29 -20 40 -5 11 -10 31 -10 44 0 14 -4
27 -10 31 -5 3 -7 12 -3 20 3 8 0 15 -7 15 -8 0 -9 10 -5 30 4 20 3 30 -5 30
-7 0 -9 8 -5 20 3 11 2 20 -3 20 -9 0 -15 81 -16 220 0 109 5 180 14 180 7 0
28 100 30 143 3 63 6 79 16 85 16 10 45 82 38 93 -3 5 6 23 20 40 24 28 31 46
27 76 -1 6 7 18 19 26 11 7 26 30 35 50 8 20 20 40 27 44 7 4 24 24 37 43 46
66 106 131 134 146 15 8 27 21 27 29 0 8 4 15 8 15 8 0 57 39 99 78 13 12 31
22 39 22 8 0 25 10 37 23 12 13 41 29 65 35 23 7 48 22 55 32 7 13 23 20 41
20 16 0 44 11 62 25 19 14 40 25 46 24 37 -5 69 2 62 13 -5 7 -2 9 8 5 9 -3
20 -1 26 5 11 11 60 21 102 20 14 0 30 4 37 10 7 5 33 7 60 3 35 -5 44 -4 33
4 -11 8 22 11 120 11 95 0 131 -3 120 -11z"/>
<path d="M9583 4597 c-3 -5 -16 -6 -28 -3 -13 3 -27 1 -30 -5 -4 -6 -19 -7
-37 -4 -23 5 -29 4 -23 -5 5 -8 3 -11 -6 -8 -8 3 -27 -1 -42 -9 -15 -8 -31
-11 -36 -8 -11 6 -79 -22 -98 -41 -14 -14 -27 -18 -50 -15 -6 1 -20 -10 -31
-24 -11 -14 -29 -25 -39 -25 -11 0 -30 -11 -43 -25 -13 -14 -28 -25 -34 -25
-10 -1 -125 -109 -167 -157 -28 -33 -80 -124 -74 -133 3 -4 -2 -10 -10 -14 -8
-3 -12 -12 -9 -21 4 -10 0 -15 -10 -15 -10 0 -16 -9 -16 -25 0 -13 -11 -41
-25 -61 -23 -34 -30 -59 -26 -92 1 -8 -5 -22 -15 -33 -9 -10 -14 -25 -11 -34
4 -8 1 -15 -4 -15 -6 0 -9 -9 -6 -20 3 -11 1 -20 -5 -20 -5 0 -7 -12 -3 -30 4
-19 3 -30 -5 -30 -6 0 -10 -19 -9 -47 0 -27 1 -122 0 -213 0 -205 2 -277 12
-286 4 -4 4 -23 1 -42 -4 -20 -3 -33 2 -29 5 3 10 -13 10 -36 1 -25 8 -45 18
-52 10 -8 16 -27 16 -53 0 -29 5 -44 18 -51 9 -6 14 -11 10 -11 -22 -1 76
-170 99 -170 8 0 12 -4 9 -9 -3 -4 17 -30 44 -57 73 -73 101 -94 129 -101 14
-3 38 -16 52 -30 16 -15 32 -21 43 -17 9 4 24 0 34 -10 23 -20 98 -47 115 -40
7 2 30 -2 50 -11 21 -9 42 -13 47 -10 5 3 12 1 15 -5 4 -6 21 -8 41 -4 23 4
34 2 34 -5 0 -9 13 -10 45 -5 25 3 53 3 62 -1 22 -9 261 -10 270 -1 3 3 24 3
46 -1 30 -4 38 -3 33 6 -6 9 0 10 20 5 20 -5 25 -4 19 6 -5 8 -3 11 6 8 8 -3
27 1 42 9 15 8 31 12 36 9 16 -10 81 15 92 35 7 15 17 19 33 15 15 -4 30 2 47
18 14 13 42 31 63 41 74 35 168 145 125 145 -8 0 -10 19 -6 65 4 40 2 65 -4
65 -5 0 -9 21 -9 48 1 40 -6 251 -9 275 -2 16 -63 2 -83 -20 -11 -12 -33 -25
-48 -28 -15 -3 -38 -17 -50 -31 -13 -13 -30 -24 -37 -24 -8 0 -34 -11 -59 -25
-30 -17 -53 -23 -69 -19 -15 4 -25 2 -25 -5 0 -13 -96 -15 -104 -2 -3 5 -15 7
-25 4 -13 -3 -25 3 -36 21 -10 14 -24 26 -31 26 -8 0 -14 6 -14 13 0 7 -14 35
-32 63 -17 27 -32 63 -32 81 -1 18 -5 35 -8 39 -4 3 -4 19 -1 35 3 18 1 29 -6
29 -6 0 -11 17 -11 40 0 22 5 40 10 40 6 0 10 11 10 24 0 14 -4 28 -10 31 -5
3 -10 -1 -10 -9 0 -9 -3 -16 -7 -16 -10 0 -9 117 0 127 4 3 7 -6 7 -21 0 -16
4 -25 10 -21 6 3 10 17 10 31 0 13 -4 24 -10 24 -5 0 -10 18 -10 40 0 22 4 40
9 40 6 0 10 17 10 38 -1 58 6 85 35 145 15 31 25 61 21 66 -3 6 0 11 8 11 18
0 38 23 41 47 2 10 8 18 14 18 7 0 19 11 28 23 12 17 23 23 40 19 13 -2 24 0
24 4 0 5 15 6 33 3 24 -4 28 -3 17 5 -11 8 4 11 60 11 56 0 71 -3 60 -11 -11
-8 -5 -9 23 -4 29 5 37 3 32 -6 -6 -9 1 -10 27 -5 19 3 38 3 41 -1 4 -4 15 -7
25 -8 39 -4 82 -17 82 -26 0 -11 60 -12 79 0 10 6 12 19 7 46 -4 21 -3 42 3
49 6 7 11 30 10 52 -1 87 3 134 13 134 5 0 7 12 3 30 -4 19 -3 30 4 30 18 0
12 40 -10 71 -11 16 -29 29 -40 29 -11 0 -27 7 -35 15 -8 8 -32 19 -53 25 -21
5 -44 16 -50 24 -13 15 -58 31 -80 27 -7 -1 -23 6 -35 17 -23 21 -94 44 -108
36 -5 -3 -20 2 -34 11 -14 9 -33 13 -44 10 -12 -4 -20 -2 -20 5 0 8 -10 9 -30
5 -20 -4 -30 -3 -30 5 0 9 -12 11 -38 6 -22 -3 -42 -3 -45 0 -10 10 -238 10
-244 1z"/>
<path d="M1850 4936 c0 -5 -33 -6 -75 -3 -50 4 -75 2 -75 -5 0 -7 -27 -9 -80
-5 -49 3 -80 1 -80 -5 0 -5 -28 -9 -62 -8 -49 2 -198 -3 -301 -9 -20 -2 -77
-73 -78 -99 -1 -15 -3 -38 -5 -52 -1 -14 -4 -40 -5 -57 -1 -18 -5 -33 -8 -33
-3 0 -6 -126 -6 -280 0 -154 4 -280 8 -280 5 0 8 -73 7 -162 -1 -220 7 -565
14 -576 8 -13 6 -691 -2 -696 -6 -3 -7 -211 -1 -211 1 0 2 -21 3 -47 1 -28 8
-54 19 -66 9 -10 17 -24 17 -30 0 -15 61 -71 78 -72 6 0 12 -4 12 -10 0 -13
52 -38 68 -33 7 3 22 -3 32 -12 10 -9 23 -14 29 -11 5 4 13 1 16 -5 4 -5 13
-8 21 -5 7 3 16 0 20 -5 3 -6 17 -8 31 -5 13 4 29 3 36 -1 15 -10 26 -10 472
-10 204 0 393 0 422 -1 29 -1 55 3 58 8 4 6 24 7 46 4 27 -5 39 -3 39 6 0 8
12 10 43 5 33 -5 39 -4 27 5 -12 9 -8 11 18 6 17 -3 32 -2 32 3 0 5 10 9 23 9
37 1 83 8 96 16 7 5 15 5 18 2 3 -3 12 -1 19 5 8 6 21 9 29 5 8 -3 28 0 43 6
35 14 52 19 82 23 14 1 27 3 30 5 6 2 26 6 53 8 10 1 16 6 13 11 -5 8 32 21
82 27 13 2 30 8 37 14 7 6 17 10 21 9 22 -4 34 2 34 17 0 11 6 15 19 11 11 -2
37 5 58 18 22 12 51 25 64 28 13 4 37 18 53 32 16 14 37 25 46 25 10 0 29 12
43 26 14 14 30 23 36 20 5 -3 18 5 29 19 11 14 27 25 36 25 8 0 31 16 50 35
20 19 40 35 46 35 7 0 9 8 5 21 -6 18 -4 20 14 14 17 -5 25 1 41 28 12 20 27
38 35 41 8 3 15 13 15 22 0 9 11 27 25 40 15 14 22 29 19 38 -4 10 3 23 16 34
14 11 23 31 25 57 2 22 4 40 6 40 1 0 3 28 4 63 1 34 -1 62 -4 62 -4 0 -7 16
-7 35 0 18 -8 42 -17 53 -9 10 -17 26 -17 36 0 9 -11 28 -24 41 -14 13 -27 34
-31 45 -4 13 -15 20 -31 20 -19 0 -23 5 -21 23 1 15 -3 22 -15 22 -9 0 -26 12
-37 27 -12 15 -32 30 -44 34 -12 4 -28 15 -35 25 -7 11 -21 19 -30 19 -9 0
-30 14 -46 30 -19 19 -39 30 -58 30 -18 0 -28 5 -28 15 0 16 -43 31 -73 26
-12 -2 -21 5 -24 19 -4 15 -8 18 -13 10 -4 -7 -13 -9 -19 -6 -6 4 -9 11 -6 15
8 13 116 64 122 57 6 -6 60 20 85 41 9 8 21 12 27 9 5 -4 20 7 32 24 13 16 28
30 33 30 18 1 86 69 86 86 0 9 9 18 21 21 12 4 22 17 26 34 3 16 8 29 12 29
16 0 33 49 37 109 3 36 8 68 12 71 10 7 10 190 0 190 -5 0 -6 5 -3 10 3 6 3
16 -2 23 -4 6 -9 21 -10 32 -6 57 -13 81 -30 95 -10 8 -17 23 -15 33 2 12 -4
20 -17 24 -12 3 -21 11 -21 17 0 13 -71 86 -84 86 -4 0 -17 11 -28 25 -11 14
-26 25 -34 25 -8 0 -23 9 -34 20 -11 11 -29 20 -40 20 -10 0 -31 12 -46 26
-18 19 -28 23 -33 15 -6 -9 -11 -8 -21 4 -7 8 -25 15 -40 15 -15 0 -33 7 -41
16 -7 8 -21 13 -32 10 -11 -3 -30 2 -42 10 -12 8 -29 12 -37 9 -8 -3 -30 1
-50 10 -20 8 -45 12 -54 8 -13 -5 -15 -3 -9 7 6 10 0 11 -31 6 -30 -5 -35 -4
-24 4 12 9 6 10 -23 5 -20 -3 -43 -2 -50 2 -12 8 -78 15 -134 14 -18 -1 -33 4
-33 10 0 7 -11 8 -30 4 -19 -4 -30 -3 -30 4 0 7 -15 9 -42 5 -34 -4 -40 -3
-28 6 12 9 3 10 -36 5 -30 -4 -54 -3 -58 3 -5 9 -72 14 -168 13 -21 0 -38 4
-38 9 0 6 -21 8 -55 4 -37 -5 -55 -3 -55 4 0 7 -23 9 -70 5 -39 -3 -70 -2 -70
3 0 5 -61 9 -135 9 -74 0 -135 -4 -135 -9z m900 -677 c-11 -7 -4 -8 26 -4 25
4 45 2 48 -4 4 -6 13 -8 22 -4 8 3 23 -2 34 -12 10 -9 23 -14 28 -11 13 8 28
-12 36 -47 6 -26 5 -28 -21 -27 -50 4 -62 0 -89 -25 -27 -25 -36 -29 -66 -26
-9 1 -22 -7 -28 -18 -6 -12 -20 -21 -31 -21 -18 0 -41 -10 -141 -61 -10 -5
-27 -9 -38 -9 -12 0 -18 -4 -15 -10 7 -12 -39 -24 -60 -16 -17 6 -21 61 -5 71
5 3 8 36 5 74 -4 59 -2 71 15 86 11 10 20 24 20 31 0 28 53 42 165 43 79 0
106 -2 95 -10z m-180 -1050 c83 0 150 -5 150 -10 0 -5 30 -9 68 -9 95 1 112
-1 112 -11 0 -5 8 -8 18 -7 28 4 132 -14 137 -23 7 -11 -68 -49 -95 -49 -26 0
-61 -18 -76 -38 -6 -8 -17 -13 -25 -10 -16 6 -71 -19 -82 -38 -4 -7 -20 -12
-37 -12 -17 1 -43 -10 -62 -24 -18 -14 -45 -28 -61 -32 -15 -3 -37 -16 -48
-27 -11 -11 -26 -18 -33 -16 -8 3 -28 -4 -47 -16 -18 -12 -44 -30 -58 -39 -50
-32 -51 -31 -51 151 0 113 4 172 11 177 8 5 8 9 -1 14 -16 10 -2 33 16 26 8
-3 82 -6 164 -7z"/>
<path d="M5783 4846 c-3 -5 -43 -6 -89 -3 -46 2 -84 1 -84 -4 0 -5 -81 -9
-180 -9 -99 0 -180 3 -180 8 0 4 -65 7 -144 7 -82 0 -140 -3 -133 -8 7 -5 -4
-6 -25 -2 -26 4 -38 2 -38 -6 0 -8 -13 -9 -43 -5 -38 6 -47 3 -71 -19 -19 -17
-26 -33 -23 -45 3 -11 1 -23 -5 -26 -5 -3 -7 -12 -4 -20 3 -7 1 -16 -5 -20 -6
-3 -8 -12 -5 -20 3 -7 0 -16 -5 -20 -6 -3 -8 -16 -5 -28 3 -12 -1 -34 -9 -50
-8 -16 -12 -40 -9 -55 4 -21 3 -23 -6 -11 -9 12 -10 7 -5 -20 5 -28 4 -32 -5
-20 -9 12 -11 8 -6 -17 3 -19 1 -33 -4 -33 -6 0 -10 -13 -10 -28 0 -16 -7 -43
-16 -61 -10 -19 -14 -44 -10 -61 3 -16 1 -30 -4 -32 -6 -2 -11 -23 -11 -48 -1
-25 -8 -58 -15 -75 -7 -16 -13 -37 -12 -45 3 -33 -2 -51 -13 -44 -7 4 -10 -3
-9 -17 1 -13 1 -26 0 -29 -2 -3 -4 -25 -5 -49 -2 -24 -9 -47 -16 -51 -6 -5 -9
-15 -6 -24 4 -9 1 -16 -4 -16 -6 0 -9 -9 -6 -20 3 -10 1 -20 -4 -22 -5 -2 -10
-28 -10 -58 -1 -30 -8 -68 -16 -83 -7 -15 -11 -32 -8 -37 3 -5 0 -12 -6 -15
-5 -4 -8 -13 -5 -21 3 -7 1 -16 -5 -20 -6 -3 -8 -12 -5 -20 3 -7 1 -16 -5 -20
-5 -3 -7 -15 -4 -26 4 -12 0 -27 -11 -40 -11 -12 -19 -35 -19 -59 0 -21 -3
-39 -7 -39 -4 0 -4 -7 -1 -17 5 -12 3 -14 -7 -8 -10 6 -12 1 -6 -25 4 -25 2
-38 -11 -53 -12 -13 -18 -34 -17 -64 1 -30 -2 -40 -8 -31 -7 9 -8 6 -5 -9 3
-13 0 -23 -5 -23 -6 0 -8 -12 -4 -32 4 -22 1 -37 -11 -51 -12 -12 -18 -35 -18
-63 0 -24 -4 -44 -9 -44 -4 0 -6 -7 -3 -15 4 -8 2 -17 -3 -20 -6 -4 -7 -17 -4
-31 4 -15 0 -34 -11 -50 -9 -14 -14 -32 -11 -40 3 -8 1 -14 -5 -14 -7 0 -8
-12 -4 -32 5 -26 4 -30 -5 -18 -9 12 -11 10 -9 -10 1 -14 0 -27 -1 -30 -2 -3
-4 -24 -5 -47 -2 -24 -11 -50 -20 -60 -13 -13 -16 -27 -11 -60 3 -26 2 -43 -4
-43 -6 0 -8 -11 -4 -24 3 -13 1 -26 -4 -30 -5 -3 -8 -37 -7 -76 2 -62 5 -75
28 -97 25 -25 30 -26 151 -27 69 -1 126 3 126 7 0 5 142 7 315 5 173 -2 315 0
315 4 0 12 311 8 330 -4 14 -9 28 -8 59 2 54 18 81 43 74 71 -5 17 -3 20 7 14
10 -6 12 -1 6 25 -4 24 -2 38 10 51 9 10 14 25 11 34 -4 8 -1 15 4 15 6 0 9 9
6 20 -3 11 -1 20 5 20 5 0 7 12 3 30 -4 17 -2 30 3 30 6 0 10 15 11 33 1 58 6
78 21 87 10 7 11 10 3 10 -7 0 -13 7 -13 16 0 12 6 15 23 11 34 -9 349 -10
380 -2 21 6 27 4 27 -9 0 -9 5 -16 11 -16 7 0 8 -11 4 -30 -4 -18 -3 -30 4
-30 6 0 8 -7 5 -15 -4 -8 1 -30 9 -48 9 -18 14 -43 11 -54 -3 -11 -1 -24 5
-27 6 -4 8 -19 5 -35 -4 -17 0 -33 8 -42 17 -17 34 -68 37 -110 2 -28 55 -41
168 -41 69 1 102 -2 93 -8 -11 -7 -4 -10 23 -10 20 0 46 5 56 12 10 6 26 8 37
3 11 -4 125 -7 254 -6 129 1 230 -2 223 -6 -21 -14 232 -7 265 8 29 12 31 17
35 79 8 122 7 160 -4 160 -7 0 -8 11 -4 30 4 18 2 30 -3 30 -6 0 -8 9 -5 20 3
11 0 20 -6 20 -5 0 -8 6 -5 14 3 8 -2 26 -11 40 -10 14 -14 33 -10 45 3 10 1
22 -5 26 -7 4 -9 18 -6 31 4 14 2 24 -4 24 -6 0 -8 10 -4 25 3 14 2 25 -4 25
-5 0 -7 11 -5 24 3 13 0 27 -6 30 -6 4 -11 23 -11 42 0 19 -5 34 -10 34 -6 0
-8 11 -4 25 3 14 2 25 -4 25 -6 0 -8 9 -5 20 3 11 0 20 -6 20 -5 0 -8 6 -5 14
3 8 -1 25 -10 38 -8 13 -15 32 -15 43 0 11 -2 38 -4 60 -2 22 -5 48 -6 57 0 9
-8 24 -17 32 -8 9 -17 33 -19 53 -1 21 -4 38 -5 38 -1 0 -3 20 -5 45 -3 24
-14 57 -26 73 -14 19 -19 37 -15 52 3 13 2 26 -4 30 -5 3 -7 12 -4 19 3 8 1
17 -5 20 -6 4 -8 13 -4 21 3 8 0 15 -6 15 -6 0 -8 11 -5 29 4 16 1 32 -5 35
-6 4 -11 20 -11 36 0 16 -5 32 -11 35 -6 4 -8 20 -4 38 5 25 4 29 -5 17 -9
-12 -10 -8 -5 18 4 21 3 32 -5 32 -6 0 -8 5 -5 11 4 5 -1 26 -10 45 -9 19 -13
43 -10 53 3 11 1 22 -4 25 -6 4 -8 13 -4 21 3 8 0 15 -7 15 -8 0 -9 10 -5 30
4 18 3 30 -4 30 -6 0 -8 6 -5 13 2 7 -2 26 -10 42 -9 16 -13 40 -10 52 4 14 2
23 -5 23 -7 0 -9 9 -5 25 3 14 2 25 -4 25 -6 0 -8 9 -5 20 3 12 0 20 -6 20 -7
0 -11 6 -9 13 1 6 -4 29 -11 49 -7 21 -10 42 -7 47 4 5 2 12 -4 16 -5 3 -7 19
-3 35 3 18 1 30 -5 30 -5 0 -8 9 -5 20 3 12 0 20 -6 20 -7 0 -9 5 -6 11 4 5 0
25 -9 44 -9 18 -13 40 -10 49 3 9 1 23 -6 31 -6 8 -9 19 -5 25 10 15 -14 68
-43 97 -19 19 -30 23 -60 18 -28 -5 -33 -4 -22 4 13 9 12 11 -5 11 -11 1 -60
3 -110 5 -59 3 -85 1 -75 -5 10 -7 -6 -10 -52 -10 -39 0 -68 4 -68 10 0 6 -26
8 -71 5 -38 -3 -74 -3 -80 0 -15 10 -520 11 -526 1z m175 -700 c-3 -25 -2 -48
3 -53 5 -5 10 -39 11 -76 2 -37 6 -67 10 -67 4 0 8 -10 7 -22 0 -13 2 -45 6
-73 3 -27 6 -60 6 -72 -1 -13 4 -23 10 -23 7 0 9 -10 5 -25 -4 -16 -2 -25 5
-25 7 0 9 -9 5 -24 -3 -12 -3 -26 1 -30 8 -8 13 -29 16 -78 2 -21 6 -41 10
-44 4 -4 4 -23 1 -41 -4 -21 -2 -33 5 -33 7 0 9 -9 5 -25 -4 -16 -2 -25 5 -25
7 0 9 -9 6 -23 -3 -12 1 -40 10 -61 9 -21 14 -45 10 -53 -3 -9 -1 -21 5 -28 6
-7 13 -22 15 -34 3 -18 0 -20 -28 -14 -18 3 -40 10 -51 15 -12 7 -33 6 -60 0
-22 -6 -79 -13 -124 -16 -82 -4 -84 -4 -78 17 3 12 6 28 6 35 0 7 5 10 11 6 8
-4 9 3 4 25 -4 18 -3 31 3 31 6 0 10 19 11 43 0 47 3 67 14 84 4 6 4 18 1 27
-3 9 -1 16 5 16 8 0 10 12 6 38 -5 29 -4 34 5 22 9 -12 10 -7 5 23 -3 20 -2
37 3 37 5 0 10 25 10 56 0 33 5 60 12 64 7 4 9 16 5 29 -4 13 -2 21 5 21 7 0
9 13 5 38 -5 29 -4 34 5 22 9 -12 10 -7 6 21 -4 19 -3 39 1 43 5 4 9 20 9 34
3 41 11 130 19 200 6 45 12 62 23 62 11 0 14 -9 10 -44z"/>
<path d="M15533 4837 c-27 -19 -30 -26 -30 -75 0 -35 3 -49 9 -40 6 8 7 -4 3
-32 -4 -33 -3 -41 4 -30 8 11 11 -20 10 -110 0 -75 -4 -117 -9 -105 -7 19 -8
19 -15 2 -4 -10 -3 -23 4 -30 7 -7 11 -49 10 -111 0 -63 -3 -93 -9 -81 -7 18
-8 19 -15 2 -4 -9 -2 -23 4 -31 11 -13 14 -143 3 -161 -6 -10 -14 -202 -12
-307 1 -38 -2 -68 -7 -68 -4 0 -8 -148 -8 -330 0 -181 3 -330 7 -330 6 0 10
-75 9 -172 0 -21 4 -38 10 -38 6 0 7 -14 3 -36 -5 -29 -4 -35 6 -29 10 6 12 4
7 -8 -3 -10 -2 -17 3 -17 5 0 7 -13 4 -29 -4 -21 -2 -30 11 -35 11 -4 15 -12
11 -22 -3 -9 -3 -21 1 -27 4 -6 8 -23 9 -37 2 -14 11 -32 21 -40 10 -8 19 -25
20 -37 1 -12 14 -39 30 -61 38 -53 163 -162 185 -162 9 0 22 -9 28 -20 11 -20
53 -37 78 -31 8 1 22 -5 32 -14 11 -10 24 -14 31 -9 8 5 10 3 4 -6 -6 -10 -3
-12 13 -8 12 4 25 2 28 -4 3 -5 13 -7 21 -4 8 3 20 3 26 -1 27 -17 458 -17
484 0 7 4 24 5 38 1 16 -4 25 -2 25 6 0 8 9 10 24 6 14 -3 28 -1 31 4 4 6 10
8 15 5 5 -3 26 1 47 10 20 9 43 13 50 11 14 -6 98 21 129 41 12 7 38 16 58 18
21 3 57 16 81 30 25 13 51 22 59 19 9 -3 25 5 39 20 13 14 28 26 33 26 5 0 20
-17 34 -38 29 -43 59 -71 78 -72 6 0 12 -4 12 -10 0 -5 12 -13 27 -16 37 -10
333 -11 333 -1 0 12 165 8 177 -4 7 -7 20 -8 30 -4 17 7 17 8 -2 16 -12 6 34
8 123 6 78 -1 142 1 142 6 0 5 42 8 93 6 50 -1 108 1 129 5 43 9 93 57 84 81
-3 9 -4 20 -1 25 5 8 16 626 14 843 0 77 3 137 9 137 8 0 8 105 -2 258 -1 28
1 52 6 52 4 0 8 -7 8 -16 0 -8 5 -12 10 -9 13 8 13 52 1 57 -11 3 -17 290 -7
306 4 7 7 98 7 204 1 106 3 197 6 201 4 6 7 292 4 343 -1 16 -77 67 -104 70
-12 1 -22 3 -22 4 0 1 -20 4 -44 6 -25 2 -48 9 -51 15 -5 6 -22 8 -46 4 -30
-5 -36 -4 -24 5 11 8 3 9 -35 5 -36 -5 -46 -3 -35 4 10 7 -10 9 -68 5 -46 -2
-88 -1 -94 3 -16 9 -169 10 -175 1 -7 -13 -158 -9 -170 3 -7 7 -20 8 -30 4
-17 -7 -17 -8 2 -16 13 -6 -17 -8 -84 -5 -68 3 -100 1 -90 -5 9 -7 -25 -9
-101 -8 -134 3 -183 -12 -195 -58 -11 -38 -12 -193 -2 -193 4 0 8 -21 8 -47 0
-27 2 -414 5 -860 4 -813 4 -813 -17 -813 -11 0 -46 -14 -77 -31 -31 -17 -64
-28 -74 -26 -10 3 -25 -2 -34 -10 -14 -15 -60 -25 -124 -27 -19 -1 -26 5 -28
22 -2 13 -9 25 -16 28 -6 2 -14 30 -16 62 -10 119 -2 979 8 984 4 2 5 75 2
163 -5 151 -3 187 7 157 3 -6 9 -10 14 -6 13 8 11 54 -2 54 -8 0 -10 61 -8
209 2 115 0 204 -4 198 -5 -7 -6 4 -3 24 5 26 2 40 -9 49 -8 7 -15 21 -15 31
0 12 -10 21 -25 25 -14 3 -25 10 -25 15 0 19 -61 39 -127 41 -13 0 -23 4 -23
9 0 5 -11 7 -25 3 -16 -4 -25 -2 -25 5 0 8 -12 10 -37 6 -30 -5 -35 -4 -23 5
12 9 3 10 -36 5 -31 -4 -54 -3 -58 3 -4 6 -151 10 -395 10 -380 1 -389 0 -418
-21z"/>
<path d="M11955 4810 c-63 -41 -74 -67 -67 -153 2 -32 0 -57 -5 -57 -6 0 -8
-56 -5 -140 3 -77 1 -140 -4 -140 -5 0 -8 -73 -6 -162 2 -90 -1 -158 -5 -151
-4 6 -8 -58 -8 -143 0 -85 4 -154 9 -154 5 0 6 -33 3 -75 -4 -50 -2 -75 5 -75
7 0 9 -27 5 -80 -3 -49 -1 -80 5 -80 5 0 9 -32 8 -77 -1 -43 1 -141 5 -218 4
-77 8 -188 8 -247 1 -62 5 -108 10 -108 6 0 8 -31 4 -80 -5 -56 -3 -80 5 -80
7 0 9 -23 5 -75 -4 -49 -2 -75 5 -75 7 0 8 -17 4 -49 -4 -32 -3 -52 5 -56 6
-4 8 -18 5 -31 -5 -17 0 -29 14 -41 20 -17 38 -21 103 -23 15 -1 27 -6 27 -11
0 -5 11 -7 25 -3 16 4 25 2 25 -5 0 -8 13 -9 40 -5 26 4 40 3 40 -4 0 -7 25
-9 72 -7 39 2 76 1 81 -2 13 -8 397 -9 397 -1 0 5 54 6 121 4 76 -2 116 0 107
6 -8 6 13 8 59 5 40 -2 84 -2 99 1 31 6 86 77 82 107 -1 11 1 26 5 33 5 7 3
12 -4 12 -8 0 -8 4 -1 13 6 7 9 38 7 71 -3 35 0 64 6 72 6 8 9 24 6 36 -3 13
-7 154 -8 313 -1 290 -1 290 22 288 13 -1 54 -3 92 -4 37 -2 67 -6 67 -9 0 -4
46 -5 103 -3 56 2 113 1 126 -2 22 -6 23 -9 17 -55 -4 -33 -3 -50 4 -50 7 0
11 -27 10 -72 -1 -125 5 -303 12 -313 4 -6 5 -52 4 -103 -2 -55 1 -92 7 -92 6
0 7 -21 3 -55 -4 -35 -2 -55 4 -55 6 0 8 -10 4 -24 -4 -16 -1 -25 9 -29 10 -4
13 -13 10 -26 -10 -40 11 -42 594 -42 556 0 556 0 584 27 23 22 28 37 35 107
5 45 7 106 5 135 -2 31 1 52 7 52 7 0 9 24 5 70 -4 47 -2 70 5 70 7 0 9 25 5
75 -4 45 -2 75 4 75 5 0 10 37 10 83 1 45 4 136 8 202 4 66 6 141 6 168 -1 27
3 47 9 47 7 0 8 29 4 85 -5 59 -4 85 4 85 7 0 9 23 5 70 -3 39 -2 70 3 70 5 0
10 52 10 116 1 69 -2 111 -7 103 -6 -10 -9 -6 -9 14 0 15 4 27 10 27 10 0 7
73 -5 102 -4 9 -4 22 0 29 4 6 8 52 7 103 0 50 3 95 6 100 7 13 13 522 6 540
-3 8 -14 16 -25 19 -10 3 -19 12 -19 21 0 9 -6 16 -12 17 -52 4 -400 -2 -413
-7 -9 -4 -21 -2 -28 5 -14 14 -57 14 -57 0 0 -8 -61 -10 -209 -8 -115 2 -204
0 -198 -4 7 -4 -63 -7 -155 -5 -92 1 -170 -1 -174 -5 -4 -4 -19 -7 -33 -7 -15
0 -34 -10 -47 -25 -20 -23 -21 -33 -16 -115 2 -50 1 -90 -4 -90 -5 0 -8 -89
-7 -202 2 -120 -1 -206 -7 -213 -7 -8 -7 -31 0 -65 6 -29 9 -55 7 -56 -2 -2
-43 2 -93 10 -49 7 -106 11 -126 8 -24 -3 -38 0 -38 7 0 8 -18 9 -57 5 -42 -4
-54 -3 -43 5 12 8 9 12 -16 17 -32 6 -32 6 -27 268 6 345 6 336 1 377 -6 46
-15 59 -37 59 -10 0 -24 7 -31 15 -7 9 -19 14 -26 11 -6 -2 -15 -2 -18 2 -4 3
-93 5 -199 4 -105 -2 -187 1 -180 5 6 4 -162 8 -373 8 -384 0 -384 0 -439 -35z"/>
<path d="M18490 3939 c0 -11 5 -17 10 -14 6 3 10 13 10 21 0 8 -4 14 -10 14
-5 0 -10 -9 -10 -21z"/>
</g>
</svg>
